<?xml version="1.0" encoding="UTF-8"?><!-- Uploaded to: SVG Repo, www.svgrepo.com, Generator: SVG Repo Mixer Tools --><svg xmlns="http://www.w3.org/2000/svg" xmlns:svg="http://www.w3.org/2000/svg" width="800" height="800" viewBox="0 0 1024 1024" class="icon" version="1.2" baseProfile="tiny-ps"><title>Home Outdoors</title><defs id="defs33"></defs><path d="M 512,512 M 0,512 a 512,512 0 1 0 1024,0 512,512 0 1 0 -1024,0 z" fill="#9af4ef" id="path1"></path><path d="M 814.752,99.166 C 588.12,159.672 421.154,366.296 421.154,612 c 0,161.328 72.062,305.738 185.64,403.096 C 844.252,970.622 1024,762.364 1024,512 1024,342.528 941.608,192.354 814.752,99.166 Z" fill="#fffff4" id="path2"></path><path d="M 430,428.068 C 407.504,409.458 375,426 357.5,411 c -23.39,-20.048 -28.702,-25.292 -50.062,-30.768 -19.5,-5 -37.156,6.312 -55.938,-18.732 -13.5,-18 -26.234,-16.178 -42.526,-12.178 -16.292,4 -21.298,-0.428 -43.224,-18.572 C 151.25,318.75 138,314.5 108,315.5 82.698,316.344 62.798,310.736 44.302,303.712 26.516,343.588 13.622,386.108 6.514,430.588 c 72.46,7.606 94.24,4.3 122.486,13.412 31,10 332.334,71 337.668,68 5.334,-3 8.872,-50.608 8.872,-50.608 -30.262,-5.468 -30.674,-21.026 -45.54,-33.324 z" fill="#36b294" id="path3"></path><path d="m 717.334,612 c 0,113.026 79.926,207.34 186.33,229.63 C 978.708,752.554 1024,637.59 1024,512 c 0,-44.082 -5.578,-86.86 -16.054,-127.674 -17.96,-4.402 -36.628,-6.992 -55.946,-6.992 -129.602,0 -234.666,105.062 -234.666,234.666 z" fill="#fffff4" id="path4"></path><path d="M 845.008,554.036 A 10.104,10.104 0 0 1 834.9,543.934 V 435.138 a 10.104,10.104 0 0 1 10.108,-10.102 10.104,10.104 0 0 1 10.108,10.102 v 108.796 a 10.102,10.102 0 0 1 -10.108,10.102 z" fill="#674447" id="path5"></path><path d="m 908.672,425.87 c 0,35.162 -28.504,63.666 -63.666,63.666 -35.162,0 -63.666,-28.504 -63.666,-63.666 0,-35.162 28.504,-143.25 63.666,-143.25 35.162,0.002 63.666,108.088 63.666,143.25 z" fill="#43ab5f" id="path6"></path><path d="m 845.006,282.62 c -8.826,0 -17.232,6.822 -24.874,17.582 h 0.002 c 32.182,0 58.27,98.928 58.27,131.11 0,27.994 -19.756,51.334 -46.076,56.946 4.098,0.828 8.334,1.278 12.676,1.278 35.162,0 63.666,-28.504 63.666,-63.666 0.002,-35.162 -28.504,-143.25 -63.664,-143.25 z" fill="#71be63" id="path7"></path><path d="m 333.292,283.246 c 0,-21.15 17.146,-38.298 38.298,-38.298 3.192,0 6.244,0.504 9.208,1.24 9.994,-10.792 24.162,-17.654 40.03,-17.654 30.216,0 54.71,24.494 54.71,54.71 H 333.292 Z M 328.59,130 c 0,-18.884 15.308,-34.192 34.192,-34.192 2.85,0 5.576,0.45 8.222,1.108 8.922,-9.636 21.572,-15.762 35.74,-15.762 26.976,0 48.846,21.87 48.846,48.846 z M 800,169.23 c 0,-15.166 -12.296,-27.462 -27.462,-27.462 -2.29,0 -4.478,0.362 -6.604,0.89 -7.166,-7.738 -17.326,-12.66 -28.704,-12.66 C 715.564,130 698,147.564 698,169.23 Z" fill="#ffffff" id="path8"></path><path d="m 527.756,496 c -13.46,0 -15.704,-13.31 -17.024,-16 -14.732,-30 -32.566,-16 -61.826,-16 -22.876,0 -27.552,-33.334 -40.32,-32 -12.768,1.334 -33.338,22.666 -51.072,16 -25.448,-9.568 -26.246,-24 -51.074,-32 -21.908,-7.06 -40.432,-2 -51.074,-16 -20.718,-27.26 -35.644,2.5 -68.098,-16 -33.006,-18.816 -43.27,16 -68.096,16 C 93.09,400 102.146,368 68.098,368 48.81,368 37.442,391.52 13.046,398.17 4.606,434.794 0,472.856 0,512 c 0,20.184 1.316,40.054 3.62,59.626 7.83,7.266 16.296,13.656 24.786,17.302 C 58.844,602 698,613.23 698,613.23 V 560 c -46.818,0 -46.818,-32 -85.122,-32 -51.606,0 -46.818,-32 -85.122,-32 z" fill="#00a07d" id="path9"></path><path d="M 214,867.096 688,613.228 676,587.332 C 561.23,587.332 362.068,470.664 0,511.998 0,639.532 46.736,756.078 123.876,845.71 172.328,857.284 214,867.096 214,867.096 Z" fill="#94d75b" id="path10"></path><path d="m 676,587.334 c -105.246,0 -281.562,-98.018 -589.286,-82.426 273.59,0.236 441.37,122.706 527.286,122.706 l 24,-8.952 38.714,-29.784 z" fill="#b0eb81" id="path11"></path><path d="m 360.522,239.35 c -4.606,0 -8.958,0.906 -13.13,2.222 -13.214,-18.996 -35.136,-31.486 -60.028,-31.486 -24.892,0 -46.814,12.49 -60.028,31.486 -4.172,-1.316 -8.524,-2.222 -13.13,-2.222 -24.242,0 -43.896,19.652 -43.896,43.896 H 404.418 C 404.416,259.004 384.764,239.35 360.522,239.35 Z M 704,198.666 c -5.036,0 -9.796,0.992 -14.358,2.43 -14.45,-20.772 -38.42,-34.43 -65.642,-34.43 -27.222,0 -51.192,13.658 -65.642,34.43 -4.562,-1.438 -9.322,-2.43 -14.358,-2.43 -26.51,0 -48,21.49 -48,48 h 256 c 0,-26.51 -21.49,-48 -48,-48 z m -334.59,-32 c 0,-28.35 22.982,-51.334 51.334,-51.334 4.278,0 8.37,0.676 12.344,1.664 13.394,-14.466 32.386,-23.664 53.656,-23.664 40.5,0 73.334,32.832 73.334,73.334 z" fill="#ffffff" id="path12"></path><path d="M 45.334,722.568 C 125.646,900.272 304.316,1024 512,1024 c 282.77,0 512,-229.23 512,-512 0,-5.344 -0.24,-10.628 -0.402,-15.932 C 706.984,497.52 563.412,720 45.334,720 Z" fill="#71be63" id="path13"></path><path d="m 698.004,618.66 a 11.466,11.466 0 0 1 -11.472,-11.462 v -123.46 c 0,-6.33 5.132,-11.462 11.472,-11.462 6.34,0 11.47,5.132 11.47,11.462 v 123.46 a 11.464,11.464 0 0 1 -11.47,11.462 z" fill="#674447" id="path14"></path><path d="m 770.246,473.222 c 0,39.9 -32.346,72.246 -72.246,72.246 -39.9,0 -72.246,-32.346 -72.246,-72.246 0,-39.9 32.346,-162.556 72.246,-162.556 39.9,0 72.246,122.654 72.246,162.556 z" fill="#43ab5f" id="path15"></path><path d="m 698,310.666 c -10.016,0 -19.554,7.742 -28.226,19.952 h 0.002 c 36.52,0 66.124,112.26 66.124,148.78 0,31.766 -22.418,58.252 -52.286,64.622 4.65,0.94 9.458,1.45 14.384,1.45 39.9,0 72.248,-32.346 72.248,-72.246 C 770.248,433.32 737.9,310.666 698,310.666 Z" fill="#71be63" id="path16"></path><path d="M 1022.788,545.52 C 797.762,546.624 475.164,857.978 160.272,883.484 251.992,970.426 375.63,1024 512,1024 c 271.496,0 493.506,-211.352 510.788,-478.48 z" fill="#43ab5f" id="path17"></path><path d="m 391.082,897.334 m -13.334,0 a 13.334,13.334 0 1 0 26.668,0 13.334,13.334 0 1 0 -26.668,0 z" fill="#b0eb81" id="path18"></path><path d="m 453.334,740.532 m -13.334,0 a 13.334,13.334 0 1 0 26.668,0 13.334,13.334 0 1 0 -26.668,0 z" fill="#94d75b" id="path19"></path><path d="m 814.132,565.42 m -13.334,0 a 13.334,13.334 0 1 0 26.668,0 13.334,13.334 0 1 0 -26.668,0 z" fill="#94d75b" id="path20"></path><path d="m 591.53,918.666 m -13.334,0 a 13.334,13.334 0 1 0 26.668,0 13.334,13.334 0 1 0 -26.668,0 z" fill="#71be63" id="path21"></path><path d="m 663.382,836 m -13.334,0 a 13.334,13.334 0 1 0 26.668,0 13.334,13.334 0 1 0 -26.668,0 z" fill="#b0eb81" id="path22"></path><path d="m 512,854.964 m -13.334,0 a 13.334,13.334 0 1 0 26.668,0 13.334,13.334 0 1 0 -26.668,0 z" fill="#71be63" id="path23"></path><path d="m 288,910.666 m -13.334,0 a 13.334,13.334 0 1 0 26.668,0 13.334,13.334 0 1 0 -26.668,0 z" fill="#71be63" id="path24"></path><path d="m 301.334,798.094 m -13.334,0 a 13.334,13.334 0 1 0 26.668,0 13.334,13.334 0 1 0 -26.668,0 z" fill="#b0eb81" id="path25"></path><path d="m 525.334,690.666 m -13.334,0 a 13.334,13.334 0 1 0 26.668,0 13.334,13.334 0 1 0 -26.668,0 z" fill="#b0eb81" id="path26"></path><path d="m 191.96,791.426 m -13.334,0 a 13.334,13.334 0 1 0 26.668,0 13.334,13.334 0 1 0 -26.668,0 z" fill="#94d75b" id="path27"></path><path d="m 756.914,778.094 m -13.334,0 a 13.334,13.334 0 1 0 26.668,0 13.334,13.334 0 1 0 -26.668,0 z" fill="#b0eb81" id="path28"></path><path d="m 886.004,740.532 m -13.334,0 a 13.334,13.334 0 1 0 26.668,0 13.334,13.334 0 1 0 -26.668,0 z" fill="#b0eb81" id="path29"></path><path d="m 639.086,764.76 m -13.334,0 a 13.334,13.334 0 1 0 26.668,0 13.334,13.334 0 1 0 -26.668,0 z" fill="#71be63" id="path30"></path><path d="m 756.914,867.096 m -13.334,0 a 13.334,13.334 0 1 0 26.668,0 13.334,13.334 0 1 0 -26.668,0 z" fill="#71be63" id="path31"></path><path d="M 797.334,704 M 784,704 a 13.334,13.334 0 1 0 26.668,0 13.334,13.334 0 1 0 -26.668,0 z" fill="#71be63" id="path32"></path><path d="m 886.004,626.562 m -13.334,0 a 13.334,13.334 0 1 0 26.668,0 13.334,13.334 0 1 0 -26.668,0 z" fill="#71be63" id="path33"></path></svg>